Screen : 
http://www.picimage7.com/share-72F3_4D15A6B1.html
 
http://www.fun4hunt.com/share-F9B6_4D15A6BC.html
 
http://www.fun4hunt.com/share-FB17_4D15A73D.html



File size: 14.6 GiB
Duration: 1h 33mn
Overall bit rate: 22.4 Mbps
Movie name: ** Evgen.ip
Encoded date: UTC 2010-08-24 03:19:27
Writing application: mkvmerge v4.2.0 ('No Talking') build on Jul 28 2010 18:38:23
Writing library: libebml v1.0.0 + libmatroska v1.0.0

Video
ID: 1
Format: AVC
Format / Info: Advanced Video Codec
Format profile: High@L4.1
Format settings, CABAC: Yes
Format settings, ReFrames: 4 frames
Muxing mode: Container profile = Unknown@0.0
Codec ID: V_MPEG4/ISO/AVC
Duration: 1h 33mn
Bit rate: 21.6 Mbps
Width: 1920 pixels
Height: 1080 pixels
Display aspect ratio: 16:9
Frame rate: 23.976 fps
Standard: NTSC
Resolution: 8 bits
Colorimetry: 4:2:0
Scan type: Progressive
Bits / (Pixel * Frame): 0.434
Stream size: 14.0 GiB (96%)
Title: Video-fail-
Color primaries: BT.709-5, BT.1361, IEC 61966-2-4, SMPTE RP177
Transfer characteristics: BT.709-5, BT.1361
Matrix coefficients: BT.709-5, BT.1361, IEC 61966-2-4 709, SMPTE RP177

Audio
ID: 2
Format: AC-3
Format / Info: Audio Coding 3
Codec ID: A_AC3
Duration: 1h 33mn
Bit rate mode: Constant
Bit rate: 448 Kbps
Channel (s): 6 channels
Channel positions: Front: LCR, Surround: LR, LFE
Sampling rate: 48.0 KHz
Stream size: 299 MiB (2%)
Title: Audio-fail-

Menu
00:00:00.000: en: 00:00:00.000
00:00:56.932: en: 00:00:56.932
00:05:12.896: en: 00:05:12.896
00:11:27.186: en: 00:11:27.186
00:13:36.816: en: 00:13:36.816
00:17:16.452: en: 00:17:16.452
00:20:44.702: en: 00:20:44.702
00:24:05.319: en: 00:24:05.319
00:27:42.369: en: 00:27:42.369
00:39:11.558: en: 00:39:11.558
00:44:41.804: en: 00:44:41.804
00:47:18.544: en: 00:47:18.544
00:59:48.376: en: 00:59:48.376
01:03:59.711: en: 01:03:59.711
01:06:01.833: en: 01:06:01.833
01:17:42.741: en: 01:17:42.741
01:20:38.709: en: 01:20:38.709
01:24:02.913: en: 01:24:02.913
01:32:09.691: en: 01:32:09.691
